<svg width="200" height="200" xmlns="http://www.w3.org/2000/svg">
  <g fill="none" fill-rule="evenodd">
    <path fill="#22242A" d="M0 0h200v200H0z"/>
    <path fill="#25292D"
          d="M82.9015544 116.494845L94.860611 99.5029802 83.4011495 83.5051546h10.7100689l5.8702419 9.0706118 6.1824887-9.0706118h10.304148l-11.240889 15.6250607 12.271304 17.3646297h-10.772518l-6.7445337-10.21997-6.8069826 10.21997z"/>
    <g fill="#25292D">
      <path
        d="M92.227979 138.14433h5.18134715v61.8556701H92.227979zM102.5906733 138.14433h5.18134715v61.8556701h-5.18134715z"/>
    </g>
    <g fill="#25292D">
      <path d="M92.227979 0h5.18134715v61.8556701H92.227979zM102.5906733 0h5.18134715v61.8556701h-5.18134715z"/>
    </g>
    <g fill="#25292D">
      <path d="M0 92.783505h62.1761658v5.15463918H0zM0 103.0927834h62.1761658v5.15463918H0z"/>
    </g>
    <g fill="#25292D">
      <path
        d="M137.823834 92.783505h62.1761658v5.15463918H137.823834zM137.823834 103.0927834h62.1761658v5.15463918H137.823834z"/>
    </g>
  </g>
</svg>
